<svg width="483" height="512" viewBox="0 0 483 512" fill="none" xmlns="http://www.w3.org/2000/svg">
<path d="M481.198 166.6C484.498 175.2 481.698 184.9 474.898 191.2L431.598 230.6C432.698 238.9 433.298 247.4 433.298 256C433.298 264.6 432.698 273.1 431.598 281.4L474.898 320.8C481.698 327.1 484.498 336.8 481.198 345.4C476.798 357.3 471.498 368.8 465.498 379.7L460.798 387.8C454.198 398.8 446.798 409.2 438.698 419.1C432.698 426.2 422.998 428.7 414.198 425.9L358.498 408.1C345.098 418.4 329.398 427 314.498 433.6L301.998 490.7C299.998 499.7 292.998 506.1 283.798 508.5C269.998 510.8 255.798 512 240.398 512C226.798 512 212.598 510.8 198.798 508.5C189.598 506.1 182.598 499.7 180.598 490.7L168.098 433.6C152.298 427 137.498 418.4 124.098 408.1L68.4381 425.9C59.5981 428.7 49.8481 426.2 43.9281 419.1C35.8181 409.2 28.4181 398.8 21.8181 387.8L17.1381 379.7C11.0681 368.8 5.78808 357.3 1.35808 345.4C-1.88192 336.8 0.84808 327.1 7.70808 320.8L50.9681 281.4C49.8681 273.1 49.2981 264.6 49.2981 256C49.2981 247.4 49.8681 238.9 50.9681 230.6L7.70808 191.2C0.84808 184.9 -1.88192 175.3 1.35808 166.6C5.78808 154.7 11.0781 143.2 17.1381 132.3L21.8081 124.2C28.4181 113.2 35.8181 102.8 43.9281 92.95C49.8481 85.8 59.5981 83.32 68.4381 86.14L124.098 103.9C137.498 93.56 152.298 84.96 168.098 78.43L180.598 21.33C182.598 12.25 189.598 5.04 198.798 3.51C212.598 1.201 226.798 0 241.298 0C255.798 0 269.998 1.201 283.798 3.51C292.998 5.04 299.998 12.25 301.998 21.33L314.498 78.43C329.398 84.96 345.098 93.56 358.498 103.9L414.198 86.14C422.998 83.32 432.698 85.8 438.698 92.95C446.798 102.8 454.198 113.2 460.798 124.2L465.498 132.3C471.498 143.2 476.798 154.7 481.198 166.6ZM241.298 336C285.498 336 321.298 300.2 321.298 255.1C321.298 211.8 285.498 175.1 241.298 175.1C197.098 175.1 161.298 211.8 161.298 255.1C161.298 300.2 197.098 336 241.298 336Z" fill="#D8D4D4"/>
</svg>
